<?xml version="1.0" encoding="UTF-8" standalone="no"?>
<!-- Created with Inkscape (http://www.inkscape.org/) -->
<svg
   xmlns:dc="http://purl.org/dc/elements/1.1/"
   xmlns:cc="http://web.resource.org/cc/"
   xmlns:rdf="http://www.w3.org/1999/02/22-rdf-syntax-ns#"
   xmlns:svg="http://www.w3.org/2000/svg"
   xmlns="http://www.w3.org/2000/svg"
   xmlns:xlink="http://www.w3.org/1999/xlink"
   xmlns:sodipodi="http://inkscape.sourceforge.net/DTD/sodipodi-0.dtd"
   xmlns:inkscape="http://www.inkscape.org/namespaces/inkscape"
   width="744.09448819"
   height="1052.3622047"
   id="svg2"
   sodipodi:version="0.32"
   inkscape:version="0.42"
   sodipodi:docbase="/a/correria"
   sodipodi:docname="logo.svg">
  <defs
     id="defs4">
    <linearGradient
       id="linearGradient10314">
      <stop
         style="stop-color:#9b29ab;stop-opacity:1;"
         offset="0"
         id="stop10316" />
      <stop
         style="stop-color:#4444da;stop-opacity:0.98431373;"
         offset="1"
         id="stop10318" />
    </linearGradient>
    <linearGradient
       inkscape:collect="always"
       xlink:href="#linearGradient10314"
       id="linearGradient10320"
       x1="241.6"
       y1="324.22346"
       x2="286.33389"
       y2="324.22346"
       gradientUnits="userSpaceOnUse"
       gradientTransform="translate(8.510849,499.2945)" />
    <linearGradient
       inkscape:collect="always"
       xlink:href="#linearGradient10314"
       id="linearGradient12074"
       x1="284.13419"
       y1="102.9621"
       x2="328.55057"
       y2="102.9621"
       gradientUnits="userSpaceOnUse" />
  </defs>
  <sodipodi:namedview
     id="base"
     pagecolor="#ffffff"
     bordercolor="#666666"
     borderopacity="1.0"
     inkscape:pageopacity="0.0"
     inkscape:pageshadow="2"
     inkscape:zoom="0.91391286"
     inkscape:cx="361.49044"
     inkscape:cy="374.88647"
     inkscape:document-units="px"
     inkscape:current-layer="layer1"
     showguides="true"
     inkscape:guide-bbox="true"
     inkscape:window-width="1024"
     inkscape:window-height="716"
     inkscape:window-x="0"
     inkscape:window-y="0" />
  <metadata
     id="metadata7">
    <rdf:RDF>
      <cc:Work
         rdf:about="">
        <dc:format>image/svg+xml</dc:format>
        <dc:type
           rdf:resource="http://purl.org/dc/dcmitype/StillImage" />
      </cc:Work>
    </rdf:RDF>
  </metadata>
  <g
     inkscape:label="Layer 1"
     inkscape:groupmode="layer"
     id="layer1">
    <path
       sodipodi:type="arc"
       style="opacity:1;fill:url(#linearGradient12074);fill-opacity:1;stroke:none;stroke-width:0.5;stroke-linecap:round;stroke-miterlimit:4;stroke-dasharray:none;stroke-opacity:1"
       id="path2226"
       sodipodi:cx="306.34238"
       sodipodi:cy="102.9621"
       sodipodi:rx="22.208189"
       sodipodi:ry="17.635916"
       d="M 328.55057 102.9621 A 22.208189 17.635916 0 1 1  284.13419,102.9621 A 22.208189 17.635916 0 1 1  328.55057 102.9621 z"
       transform="matrix(0.284223,0,0,0.284223,403.4532,791.9261)"
       inkscape:export-filename="/a/correria/logo-cinza.png"
       inkscape:export-xdpi="89.989998"
       inkscape:export-ydpi="89.989998" />
    <path
       style="fill:#0000ab;fill-opacity:1;fill-rule:evenodd;stroke:#000000;stroke-width:1px;stroke-linecap:butt;stroke-linejoin:miter;stroke-opacity:0.37333333"
       d="M 256.51367,548.84532 C 256.51367,548.84532 261.16132,545.88772 264.54142,550.11285 C 267.92153,554.33799 270.4566,557.29558 271.72416,560.25318 C 272.99169,563.21076 273.4142,569.12595 273.4142,569.12595 C 273.4142,569.12595 276.37179,561.0982 280.59693,557.29558 C 284.82206,553.49297 291.58227,550.11285 291.58227,550.11285 C 291.58227,550.11285 283.55451,552.22541 281.44195,552.64793 C 279.32939,553.07046 276.37179,554.7605 276.37179,554.7605 C 276.37179,554.7605 278.06185,550.53537 282.70948,545.4652 C 287.35713,540.39506 293.69483,535.3249 293.69483,535.3249 C 293.69483,535.3249 286.93462,534.47988 282.70948,537.85997 C 278.48437,541.24009 272.99169,545.4652 272.99169,545.4652 C 272.99169,545.4652 271.72416,538.705 276.37179,532.3673 C 281.01944,526.0296 281.01944,519.26939 281.01944,519.26939 C 281.01944,519.26939 277.21681,526.45211 274.68174,529.40972 C 272.14667,532.3673 269.61158,534.47988 267.49902,537.43746 C 265.38646,540.39506 264.96393,542.50762 264.96393,542.50762 C 264.96393,542.50762 267.07651,537.85997 265.38646,529.83223 C 263.69639,521.80448 257.3587,517.15683 257.3587,517.15683 C 257.3587,517.15683 260.73881,524.33955 260.73881,528.14218 C 260.73881,531.94479 259.47127,539.55002 259.47127,539.55002 C 259.47127,539.55002 260.3163,534.47988 256.93618,531.52227 C 253.55609,528.56469 250.17597,528.14218 250.17597,528.14218 C 250.17597,528.14218 255.66865,531.09976 255.66865,534.47988 C 255.66865,537.85997 255.66865,543.35265 255.66865,543.35265 C 255.66865,543.35265 251.021,537.85997 249.33095,537.85997 C 247.6409,537.85997 252.28853,543.77516 252.28853,543.77516 L 256.51367,548.84532 z "
       id="path3214" />
    <g
       id="g6796"
       style="fill:#000000;fill-opacity:1;stroke:#000096;stroke-opacity:1">
      <path
         id="path3195"
         d="M 407.6262,570.48483 C 398.58187,570.69691 390.29154,571.76079 383.49532,573.36518 C 390.94366,575.00447 400.08292,575.98949 409.93047,575.98949 C 420.32728,575.98949 429.91795,574.91834 437.58176,573.10915 C 430.12511,571.46379 421.01415,570.48483 411.14662,570.48483 C 409.96961,570.48483 408.78079,570.45776 407.6262,570.48483 z "
         style="fill:#000000;fill-opacity:1;stroke:#000096;stroke-width:1.024122;stroke-linecap:round;stroke-miterlimit:4;stroke-dasharray:none;stroke-opacity:1" />
      <g
         id="g5889"
         style="fill:#000000;fill-opacity:1;stroke:#000096;stroke-opacity:1">
        <path
           style="fill:#000000;fill-opacity:1;stroke:#000096;stroke-width:1.024122;stroke-linecap:round;stroke-miterlimit:4;stroke-dasharray:none;stroke-opacity:1"
           d="M 216.32008,550.39219 C 199.94684,551.21051 186.24006,559.90825 181.11588,571.77074 C 179.73526,569.09614 178.78813,566.31391 178.36355,563.38574 C 178.39006,567.09337 179.06637,570.65545 180.28378,574.01101 C 179.47028,576.47429 179.04535,579.09813 179.00363,581.75593 C 179.3538,579.70931 180.0491,577.71552 180.98787,575.80322 C 186.55065,588.70442 200.36622,597.97438 216.70412,598.52593 C 217.21571,598.5432 217.72398,598.52595 218.24031,598.52593 C 224.60834,598.52595 230.62761,597.17024 235.97042,594.81349 C 233.58307,595.05655 231.09248,595.19753 228.60954,595.19753 C 207.78222,595.19753 189.86092,586.32491 182.14,573.69097 C 189.46534,561.8197 207.80973,553.40055 229.24962,553.40055 C 231.73258,553.40055 234.22314,553.50247 236.61049,553.72059 C 231.26771,551.60572 225.24841,550.39217 218.88038,550.39219 C 218.36408,550.39219 217.85579,550.37669 217.3442,550.39219 C 217.01247,550.40225 216.64968,550.37573 216.32008,550.39219 z "
           id="path3187" />
        <path
           style="fill:#000000;fill-opacity:1;stroke:#000096;stroke-width:0.69116014;stroke-linecap:round;stroke-miterlimit:4;stroke-dasharray:none;stroke-opacity:1"
           d="M 308.79242,506.36269 C 307.93185,518.83553 307.42495,533.99805 307.38425,550.39994 C 305.78242,550.29232 304.17779,550.20791 302.51967,550.20791 C 302.35587,550.20791 302.23488,550.20683 302.07162,550.20791 C 301.57414,550.21119 301.02814,550.19476 300.53543,550.20791 C 300.29677,550.21426 300.0688,550.19923 299.83135,550.20791 C 299.5976,550.21643 299.35982,550.19714 299.12727,550.20791 C 298.42959,550.24015 297.76529,550.3481 297.07902,550.39994 C 300.66238,550.45632 304.11663,550.75551 307.38425,551.29604 C 307.38372,551.68154 307.38425,552.06133 307.38425,552.44818 C 307.38427,554.49905 307.36948,556.58109 307.38425,558.59291 C 307.42276,563.84588 307.50491,568.91348 307.64028,573.82673 C 306.64504,574.00402 305.66291,574.14025 304.63192,574.27478 C 305.67194,574.56873 306.69934,574.8727 307.70429,575.2349 C 307.97845,584.52237 308.36542,593.0633 308.92043,600.58192 C 309.42283,593.28181 309.82783,585.05485 310.07257,576.19501 C 313.4185,577.61682 316.53183,579.40303 319.35368,581.50764 C 319.35921,581.51334 319.4123,581.56645 319.41768,581.57165 C 319.42336,581.57073 319.47626,581.57188 319.48169,581.57165 C 326.90617,584.52727 333.13469,592.93912 337.40383,598.34165 C 332.14084,588.74309 322.69264,577.324 311.22471,574.08276 C 323.2216,572.51739 332.92782,568.02342 337.33982,562.11333 C 332.50639,556.34503 322.51406,551.92778 310.39261,550.59196 C 310.31422,534.00495 309.70587,518.7373 308.79242,506.36269 z M 310.39261,551.87211 C 319.48282,553.83673 326.82762,557.56377 330.74703,562.24135 C 327.03252,567.21711 319.56395,571.24111 310.13658,573.31467 C 310.27901,567.29785 310.39261,561.01816 310.39261,554.56043 C 310.39261,553.66773 310.39541,552.75777 310.39261,551.87211 z "
           id="path3191" />
        <path
           style="fill:#000000;fill-opacity:1;stroke:#000096;stroke-width:1.024122;stroke-linecap:round;stroke-miterlimit:4;stroke-dasharray:none;stroke-opacity:1"
           d="M 413.58896,550.37284 C 397.21573,551.19115 383.50894,559.8889 378.38477,571.75139 C 377.00415,569.07679 376.05702,566.29456 375.63244,563.36639 C 375.65894,567.07402 376.33525,570.6361 377.55267,573.99165 C 376.73917,576.45493 376.31424,579.07877 376.27252,581.73658 C 376.62268,579.68995 377.31798,577.69617 378.25675,575.78387 C 383.81954,588.68506 397.63511,597.95502 413.97301,598.50657 C 414.4846,598.52384 414.99287,598.50659 415.50919,598.50657 C 421.87722,598.50659 427.8965,597.15088 433.2393,594.79413 C 430.85195,595.0372 428.36137,595.17818 425.87843,595.17818 C 405.0511,595.17818 387.12981,586.30555 379.40889,573.67161 C 386.73423,561.80034 405.07861,553.3812 426.5185,553.3812 C 429.00147,553.3812 431.49203,553.48312 433.87938,553.70124 C 428.5366,551.58636 422.5173,550.37282 416.14927,550.37284 C 415.63297,550.37284 415.12467,550.35733 414.61308,550.37284 C 414.28135,550.3829 413.91857,550.35637 413.58896,550.37284 z "
           id="path3193" />
        <path
           style="fill:#000000;fill-opacity:1;stroke:#000096;stroke-width:0.69116014;stroke-linecap:round;stroke-miterlimit:4;stroke-dasharray:none;stroke-opacity:1"
           d="M 346.81295,545.34333 C 346.68874,546.99516 346.53316,548.74424 346.4289,550.52795 C 344.20783,550.31676 341.91832,550.20791 339.58009,550.20791 C 339.41631,550.20789 339.2953,550.20683 339.13203,550.20791 C 338.63458,550.21117 338.08856,550.19476 337.59585,550.20791 C 337.35721,550.21424 337.12922,550.19923 336.89177,550.20791 C 336.65804,550.21641 336.42024,550.19714 336.18768,550.20791 C 335.49003,550.24013 334.8257,550.28409 334.13944,550.33593 C 338.45544,550.40385 342.5907,550.92035 346.4289,551.68009 C 346.06432,558.28975 345.76599,565.68629 345.72482,573.5707 C 344.40655,573.82771 343.07617,574.09423 341.69234,574.27478 C 343.07787,574.66639 344.40245,575.10723 345.72482,575.61894 C 345.72455,575.83012 345.72482,576.04723 345.72482,576.25902 C 345.7248,577.63327 345.71402,579.00745 345.72482,580.35551 C 345.80915,590.91527 346.23862,600.58398 346.87696,608.51886 C 347.52916,599.82261 347.96509,589.16466 347.96509,577.66719 C 347.96509,577.28785 347.9019,576.89252 347.90108,576.51505 C 350.94284,577.87758 353.81966,579.57265 356.41409,581.50764 C 356.42513,581.51903 356.46819,581.56424 356.4781,581.57165 C 356.48353,581.57143 356.53746,581.56981 356.54211,581.57165 C 363.9666,584.52731 370.19511,592.93912 374.46424,598.34165 C 369.2013,588.74305 359.75306,577.324 348.28512,574.08276 C 360.28204,572.51737 369.98824,567.95941 374.40024,562.04932 C 369.52763,556.23418 359.38763,551.88913 347.13299,550.59196 C 347.02056,548.78653 346.94641,547.00241 346.81295,545.34333 z M 347.19699,551.8081 C 356.40344,553.75758 363.85207,557.52084 367.80745,562.24135 C 364.18824,567.08944 356.98746,571.00671 347.90108,573.12264 C 347.8334,565.42293 347.57258,558.22415 347.19699,551.8081 z "
           id="path3197" />
        <path
           style="fill:#000000;fill-opacity:1;stroke:#000096;stroke-width:0.69116014;stroke-linecap:round;stroke-miterlimit:4;stroke-dasharray:none;stroke-opacity:1"
           d="M 447.1129,542.78303 C 446.93747,545.15004 446.74719,547.64628 446.60084,550.20791 C 445.83312,550.18374 445.07598,550.20791 444.29656,550.20791 C 444.13279,550.20789 444.01178,550.20683 443.84851,550.20791 C 443.35105,550.21117 442.80503,550.19476 442.31233,550.20791 C 442.07369,550.21424 441.8457,550.19923 441.60824,550.20791 C 441.37452,550.21641 441.13672,550.19714 440.90416,550.20791 C 440.20651,550.24013 439.54218,550.28409 438.85592,550.33593 C 441.49629,550.37749 444.05837,550.60253 446.53683,550.912 C 445.96027,561.27064 445.64072,573.08496 445.64072,585.66814 C 445.6407,587.57731 445.62596,589.49197 445.64072,591.36482 C 445.75623,606.03524 446.36679,619.51365 447.24092,630.53749 C 448.13407,618.45592 448.64908,603.62563 448.64908,587.65238 C 448.64908,583.30457 448.59554,579.0577 448.52107,574.91486 C 453.12966,576.46491 457.40172,578.72656 461.13057,581.50764 C 461.1361,581.51334 461.18919,581.56645 461.19458,581.57165 C 461.20025,581.57073 461.25316,581.57188 461.25859,581.57165 C 468.68308,584.52731 474.91159,592.93912 479.18072,598.34165 C 473.91778,588.74305 464.46954,577.324 453.0016,574.08276 C 464.99852,572.51737 474.70471,567.95941 479.11671,562.04932 C 473.68985,555.57272 461.77323,550.91288 447.62496,550.27192 C 447.46653,547.66502 447.30232,545.17198 447.1129,542.78303 z M 447.68897,551.04001 C 458.8586,552.62736 467.97355,556.81076 472.52393,562.24135 C 468.37908,567.79356 459.52067,572.15243 448.52107,573.95474 C 448.36255,565.76803 448.10241,558.03438 447.68897,551.04001 z "
           id="path3199" />
        <path
           style="fill:#000000;fill-opacity:1;stroke:#000096;stroke-width:0.9071936;stroke-linecap:round;stroke-miterlimit:4;stroke-dasharray:none;stroke-opacity:1"
           d="M 488.1348,576.84289 C 488.32265,584.8546 489.26507,592.19837 490.68628,598.21863 C 492.1384,591.62071 493.01096,583.52492 493.01096,574.80171 C 493.01096,565.59195 492.06211,557.09628 490.45948,550.30748 C 489.00199,556.91278 488.1348,564.9835 488.1348,573.72442 C 488.1348,574.76704 488.1108,575.82012 488.1348,576.84289 z "
           id="path3201" />
        <path
           style="fill:#000000;fill-opacity:1;stroke:#000096;stroke-width:0.9395594;stroke-linecap:round;stroke-miterlimit:4;stroke-dasharray:none;stroke-opacity:1"
           d="M 541.15878,550.26418 C 537.70016,550.34885 534.38344,550.96777 531.2376,551.92838 C 528.8513,551.26507 526.25728,550.89379 523.6847,550.84025 C 525.66415,551.14326 527.59285,551.739 529.44539,552.50445 C 518.68512,556.40953 510.43938,565.16046 507.6828,575.93124 C 507.68101,575.9382 507.62057,575.92427 507.61879,575.93124 C 505.45039,576.23221 503.36663,576.58336 501.41005,576.95536 C 503.26217,577.28365 505.20395,577.52221 507.23474,577.78746 C 507.23753,577.78783 507.23196,577.8511 507.23474,577.85147 C 506.94545,579.37798 506.78648,580.93321 506.72268,582.52402 C 506.70541,582.95463 506.72266,583.43361 506.72268,583.86818 C 506.72266,589.22803 508.07837,594.28504 510.43512,598.78196 C 510.19206,596.77257 510.05108,594.66306 510.05108,592.57322 C 510.05108,587.59853 510.72304,582.80396 512.03531,578.36353 C 517.69023,578.9218 523.83857,579.25963 530.27749,579.25963 C 537.20238,579.25963 543.80649,578.86944 549.79981,578.23551 C 551.09758,582.8722 551.84806,587.84616 551.84806,593.08528 C 551.84806,595.17513 551.74614,597.28465 551.52802,599.29402 C 553.64289,594.79712 554.85644,589.74007 554.85642,584.38024 C 554.85642,583.94567 554.87192,583.53069 554.85642,583.10009 C 554.84636,582.82092 554.87288,582.4814 554.85642,582.20398 C 554.76568,580.67599 554.5584,579.18948 554.28035,577.72345 C 556.45925,577.42533 558.5258,577.0726 560.48909,576.69933 C 558.37766,576.32411 556.16938,575.96692 553.83229,575.67521 C 551.09305,564.8828 543.39418,556.23778 533.47787,552.63246 C 536.15247,551.47043 538.9347,550.62154 541.86287,550.26418 C 541.63115,550.26557 541.38935,550.25853 541.15878,550.26418 z M 531.55764,553.46456 C 539.20904,557.43846 545.38638,565.26929 548.8397,575.16315 C 543.47084,574.66677 537.68844,574.39505 531.62165,574.39505 C 530.33517,574.39505 529.0432,574.37121 527.78119,574.39505 C 522.63381,574.49226 517.70975,574.76204 513.12344,575.22715 C 516.76328,565.49199 523.38013,557.67083 531.55764,553.46456 z "
           id="path3203" />
        <path
           style="fill:#000000;fill-opacity:1;stroke:#000096;stroke-width:0.93600565;stroke-linecap:round;stroke-miterlimit:4;stroke-dasharray:none;stroke-opacity:1"
           d="M 260.37764,551.00046 C 260.2713,551.00118 260.16444,551.0606 260.0576,551.06447 C 259.78048,551.07455 259.50083,551.048 259.22551,551.06447 C 259.09051,551.07256 258.97599,551.05486 258.84146,551.06447 C 245.34126,552.02901 234.07575,560.74566 229.846,572.50702 C 228.73448,569.94047 227.9193,567.24318 227.54173,564.44206 C 227.60369,567.97713 228.17404,571.40861 229.14192,574.61928 C 229.14208,574.6247 229.14317,574.67876 229.14192,574.68328 C 228.49459,577.02383 228.12206,579.46343 228.05379,581.98015 C 228.36553,580.05515 228.9714,578.21884 229.71799,576.41149 C 234.34848,589.33734 245.88245,598.64602 259.54554,599.1982 C 259.97287,599.21549 260.39442,599.19822 260.8257,599.1982 C 261.98928,599.19822 263.14925,599.13196 264.28211,599.00618 C 264.34489,599.00876 264.47524,599.00395 264.53814,599.00618 C 265.67098,599.13198 266.83094,599.1982 267.99455,599.1982 C 268.42583,599.19825 268.84736,599.21547 269.2747,599.1982 C 282.93776,598.64604 294.47175,589.33732 299.10226,576.41149 C 299.84884,578.21886 300.45471,580.05515 300.76646,581.98015 C 300.6977,579.48695 300.31463,577.06599 299.67833,574.74729 C 299.67706,574.74268 299.67876,574.68836 299.67833,574.68328 C 299.6796,574.67187 299.67802,574.63013 299.67833,574.61928 C 300.64618,571.40863 301.21654,567.97711 301.27852,564.44206 C 300.90092,567.2432 300.08574,569.94045 298.97424,572.50702 C 296.712,566.20355 292.43879,560.7643 286.8768,556.95317 C 286.10394,557.24023 285.32235,557.58159 284.70054,557.97729 C 283.97507,558.43895 283.30198,559.04189 282.78031,559.57748 C 289.67274,563.16826 295.05659,568.32557 298.14214,574.29924 C 292.34688,585.6963 279.6506,594.0567 264.47413,595.61378 C 264.45252,595.61406 264.36768,595.61355 264.34612,595.61378 C 249.16963,594.05672 236.47332,585.69628 230.6781,574.29924 C 236.12119,563.76139 248.78886,555.94578 264.09009,554.32886 C 264.15336,554.33082 264.28291,554.32671 264.34612,554.32886 C 264.36752,554.32912 264.45269,554.32859 264.47413,554.32886 C 264.49556,554.32861 264.58072,554.3291 264.60215,554.32886 C 264.62355,554.3291 264.70874,554.32859 264.73016,554.32886 C 264.82979,554.33939 264.9508,554.3178 265.0502,554.32886 C 264.77481,553.76035 264.44671,553.20417 264.15409,552.72867 C 263.62649,551.87131 262.91206,551.37902 262.16986,551.06447 C 262.14866,551.05548 262.12707,551.07324 262.10585,551.06447 C 261.85924,551.05898 261.58711,551.06447 261.33776,551.06447 C 261.01426,551.06449 260.6967,550.99829 260.37764,551.00046 z "
           id="path4089" />
      </g>
    </g>
    <path
       style="fill:url(#linearGradient10320);fill-opacity:1;fill-rule:evenodd;stroke:none;stroke-width:1px;stroke-linecap:butt;stroke-linejoin:miter;stroke-opacity:1"
       d="M 257.66358,829.22188 C 257.66358,829.22188 262.31123,826.26427 265.69133,830.48941 C 269.07144,834.71455 271.60651,837.67213 272.87407,840.62974 C 274.1416,843.58732 274.56412,849.5025 274.56412,849.5025 C 274.56412,849.5025 277.5217,841.47476 281.74684,837.67213 C 285.97198,833.86953 292.73218,830.48941 292.73218,830.48941 C 292.73218,830.48941 284.70442,832.60197 282.59186,833.02448 C 280.4793,833.44701 277.5217,835.13706 277.5217,835.13706 C 277.5217,835.13706 279.21177,830.91192 283.8594,825.84176 C 288.50705,820.77162 294.84474,815.70146 294.84474,815.70146 C 294.84474,815.70146 288.08453,814.85643 283.8594,818.23653 C 279.63428,821.61664 274.1416,825.84176 274.1416,825.84176 C 274.1416,825.84176 272.87407,819.08155 277.5217,812.74386 C 282.16935,806.40616 282.16935,799.64595 282.16935,799.64595 C 282.16935,799.64595 278.36672,806.82867 275.83165,809.78627 C 273.29658,812.74386 270.76149,814.85643 268.64893,817.81402 C 266.53637,820.77162 266.11384,822.88418 266.11384,822.88418 C 266.11384,822.88418 268.22642,818.23653 266.53637,810.20878 C 264.8463,802.18104 258.50861,797.53339 258.50861,797.53339 C 258.50861,797.53339 261.88872,804.71611 261.88872,808.51874 C 261.88872,812.32134 260.62119,819.92658 260.62119,819.92658 C 260.62119,819.92658 261.46621,814.85643 258.08609,811.89883 C 254.706,808.94125 251.32589,808.51874 251.32589,808.51874 C 251.32589,808.51874 256.81856,811.47632 256.81856,814.85643 C 256.81856,818.23653 256.81856,823.7292 256.81856,823.7292 C 256.81856,823.7292 252.17091,818.23653 250.48086,818.23653 C 248.79082,818.23653 253.43844,824.15171 253.43844,824.15171 L 257.66358,829.22188 z "
       id="path4101"
       inkscape:export-filename="/a/correria/logo-cinza.png"
       inkscape:export-xdpi="89.989998"
       inkscape:export-ydpi="89.989998" />
    <g
       id="g8554"
       style="fill:#001200;fill-opacity:1.0000000;stroke:#000000;stroke-opacity:0.34666664"
       transform="translate(8.510849,499.2945)"
       inkscape:export-filename="/a/correria/logo-cinza.png"
       inkscape:export-xdpi="89.989998"
       inkscape:export-ydpi="89.989998">
      <path
         id="path1322"
         d="M 207.26643,334.22414 C 190.8932,335.04246 177.18641,343.7402 172.06223,355.60269 C 170.68161,352.92809 169.73449,350.14586 169.30991,347.21769 C 169.33641,350.92532 170.01272,354.4874 171.23013,357.84296 C 170.41663,360.30624 169.9917,362.93008 169.94998,365.58788 C 170.30015,363.54125 170.99545,361.54747 171.93422,359.63517 C 177.497,372.53636 191.31257,381.80633 207.65047,382.35788 C 208.16206,382.37514 208.67034,382.3579 209.18666,382.35788 C 215.55469,382.3579 221.57397,381.00218 226.91677,378.64543 C 224.52942,378.8885 222.03884,379.02948 219.55589,379.02948 C 198.72857,379.02948 180.80727,370.15686 173.08636,357.52292 C 180.4117,345.65164 198.75608,337.2325 220.19597,337.2325 C 222.67893,337.2325 225.1695,337.33442 227.55685,337.55254 C 222.21406,335.43766 216.19477,334.22412 209.82673,334.22414 C 209.31043,334.22414 208.80214,334.20864 208.29055,334.22414 C 207.95882,334.2342 207.59603,334.20767 207.26643,334.22414 z "
         style="fill:#001200;fill-opacity:1.0000000;stroke:#000000;stroke-width:1.024122;stroke-linecap:round;stroke-miterlimit:4;stroke-dasharray:none;stroke-opacity:0.34666664" />
      <path
         sodipodi:nodetypes="ccccssscccssssc"
         id="path2210"
         d="M 290.06665,334.03161 C 289.36898,334.06385 288.70467,334.16075 288.01841,334.21259 C 303.10627,334.45002 315.98546,339.29299 321.68642,346.09673 C 317.27442,352.00681 307.56822,356.53613 295.57131,358.10148 C 301.01141,359.63906 305.99312,362.13354 310.29306,365.34055 C 310.31289,365.35534 310.33727,365.38606 310.35707,365.40089 C 310.37563,365.40825 310.40252,365.3935 310.42108,365.40089 C 317.84555,368.35653 324.07408,376.77047 328.34321,382.173 C 323.08025,372.5744 313.63203,361.16177 302.1641,357.92052 C 314.16099,356.35515 323.86721,351.82583 328.27921,345.91574 C 322.43204,338.93756 309.04728,334.03161 293.45906,334.03161 C 293.29526,334.03161 293.17427,334.03052 293.011,334.03161 C 292.51353,334.03488 291.96753,334.01846 291.47482,334.03161 C 291.23616,334.03796 291.00819,334.02292 290.77074,334.03161 C 290.53699,334.04013 290.29921,334.02083 290.06665,334.03161 z "
         style="fill:#001200;fill-opacity:1.0000000;stroke:#000000;stroke-width:0.69116014;stroke-linecap:round;stroke-miterlimit:4;stroke-dasharray:none;stroke-opacity:0.34666664" />
      <path
         id="path2238"
         d="M 404.53531,334.20479 C 388.16208,335.0231 374.45529,343.72085 369.33112,355.58333 C 367.9505,352.90874 367.00337,350.1265 366.57879,347.19833 C 366.60529,350.90596 367.2816,354.46804 368.49902,357.8236 C 367.68552,360.28688 367.26059,362.91072 367.21887,365.56852 C 367.56903,363.5219 368.26433,361.52812 369.2031,359.61581 C 374.76589,372.51701 388.58146,381.78697 404.91936,382.33852 C 405.43095,382.35579 405.93922,382.33854 406.45554,382.33852 C 412.82357,382.33854 418.84285,380.98283 424.18565,378.62608 C 421.7983,378.86914 419.30772,379.01012 416.82478,379.01012 C 395.99745,379.01012 378.07616,370.1375 370.35524,357.50356 C 377.68058,345.63229 396.02496,337.21314 417.46485,337.21314 C 419.94782,337.21314 422.43838,337.31506 424.82573,337.53318 C 419.48295,335.41831 413.46365,334.20476 407.09562,334.20479 C 406.57932,334.20479 406.07103,334.18928 405.55944,334.20479 C 405.2277,334.21484 404.86492,334.18832 404.53531,334.20479 z "
         style="fill:#001200;fill-opacity:1.0000000;stroke:#000000;stroke-width:1.024122;stroke-linecap:round;stroke-miterlimit:4;stroke-dasharray:none;stroke-opacity:0.34666664" />
      <path
         id="path2244"
         d="M 398.57255,354.31678 C 389.52822,354.52886 381.23789,355.59273 374.44167,357.19712 C 381.89001,358.83642 391.02927,359.82144 400.87682,359.82144 C 411.27363,359.82144 420.8643,358.75029 428.52812,356.94109 C 421.07146,355.29574 411.96051,354.31678 402.09297,354.31678 C 400.91596,354.31678 399.72714,354.2897 398.57255,354.31678 z "
         style="fill:#001200;fill-opacity:1.0000000;stroke:#000000;stroke-width:1.024122;stroke-linecap:round;stroke-miterlimit:4;stroke-dasharray:none;stroke-opacity:0.34666664" />
      <path
         sodipodi:nodetypes="ccccssscccssssc"
         id="path2251"
         d="M 327.11337,334.01721 C 326.41569,334.04945 325.75139,334.14635 325.06512,334.19819 C 340.15298,334.43562 353.03218,339.27859 358.73314,346.08233 C 354.32114,351.99241 344.61494,356.52174 332.61802,358.08709 C 338.05812,359.62466 343.03984,362.11914 347.33978,365.32615 C 347.3596,365.34094 347.38398,365.37167 347.40379,365.3865 C 347.42234,365.39385 347.44924,365.3791 347.46779,365.3865 C 354.89227,368.34213 361.12079,376.75607 365.38993,382.1586 C 360.12697,372.56 350.67874,361.14737 339.21081,357.90612 C 351.2077,356.34075 360.91392,351.81143 365.32592,345.90134 C 359.47876,338.92316 346.09399,334.01721 330.50577,334.01721 C 330.34197,334.01721 330.22098,334.01612 330.05772,334.01721 C 329.56024,334.02048 329.01424,334.00406 328.52154,334.01721 C 328.28287,334.02356 328.0549,334.00852 327.81745,334.01721 C 327.58371,334.02573 327.34592,334.00643 327.11337,334.01721 z "
         style="fill:#001200;fill-opacity:1.0000000;stroke:#000000;stroke-width:0.69116014;stroke-linecap:round;stroke-miterlimit:4;stroke-dasharray:none;stroke-opacity:0.34666664" />
      <path
         sodipodi:nodetypes="ccccssscccssssc"
         id="path2253"
         d="M 431.83685,334.01721 C 431.13918,334.04945 430.47487,334.14635 429.78861,334.19819 C 444.87646,334.43562 457.75566,339.27859 463.45662,346.08233 C 459.04462,351.99241 449.33842,356.52174 437.34151,358.08709 C 442.7816,359.62466 447.76332,362.11914 452.06326,365.32615 C 452.08309,365.34094 452.10746,365.37167 452.12727,365.3865 C 452.14582,365.39385 452.17272,365.3791 452.19128,365.3865 C 459.61575,368.34213 465.84428,376.75607 470.11341,382.1586 C 464.85045,372.56 455.40223,361.14737 443.93429,357.90612 C 455.93118,356.34075 465.6374,351.81143 470.0494,345.90134 C 464.20224,338.92316 450.81748,334.01721 435.22925,334.01721 C 435.06546,334.01721 434.94447,334.01612 434.7812,334.01721 C 434.28372,334.02048 433.73772,334.00406 433.24502,334.01721 C 433.00636,334.02356 432.77839,334.00852 432.54093,334.01721 C 432.30719,334.02573 432.06941,334.00643 431.83685,334.01721 z "
         style="fill:#001200;fill-opacity:1.0000000;stroke:#000000;stroke-width:0.69116014;stroke-linecap:round;stroke-miterlimit:4;stroke-dasharray:none;stroke-opacity:0.34666664" />
      <path
         id="path2255"
         d="M 479.08116,360.67484 C 479.269,368.68654 480.21142,376.03032 481.63263,382.05058 C 483.08476,375.45265 483.95731,367.35686 483.95731,358.63366 C 483.95731,349.42389 483.00846,340.92823 481.40583,334.13943 C 479.94834,340.74473 479.08116,348.81544 479.08116,357.55637 C 479.08116,358.59898 479.05715,359.65207 479.08116,360.67484 z "
         style="fill:#001200;fill-opacity:1.0000000;stroke:#000000;stroke-width:0.9071936;stroke-linecap:round;stroke-miterlimit:4;stroke-dasharray:none;stroke-opacity:0.34666664" />
      <path
         id="path2257"
         d="M 532.10514,334.09613 C 528.64651,334.1808 525.32979,334.79972 522.18395,335.76032 C 519.79765,335.09702 517.20363,334.72574 514.63105,334.67219 C 516.6105,334.97521 518.53921,335.57094 520.39174,336.33639 C 509.63147,340.24147 501.38574,348.99241 498.62915,359.76318 C 498.62736,359.77015 498.56692,359.75622 498.56514,359.76318 C 496.39675,360.06415 494.31298,360.4153 492.3564,360.78731 C 494.20852,361.1156 496.1503,361.35416 498.18109,361.61941 C 498.18388,361.61977 498.17831,361.68304 498.18109,361.68341 C 497.8918,363.20993 497.73284,364.76516 497.66903,366.35597 C 497.65177,366.78657 497.66901,367.26555 497.66903,367.70013 C 497.66901,373.05998 499.02472,378.11699 501.38147,382.61391 C 501.13841,380.60452 500.99743,378.49501 500.99743,376.40517 C 500.99743,371.43047 501.6694,366.6359 502.98167,362.19547 C 508.63658,362.75374 514.78492,363.09158 521.22384,363.09158 C 528.14873,363.09158 534.75284,362.70139 540.74617,362.06746 C 542.04393,366.70415 542.79441,371.67811 542.79441,376.91723 C 542.79441,379.00707 542.69249,381.1166 542.47437,383.12597 C 544.58924,378.62907 545.80279,373.57202 545.80277,368.21219 C 545.80277,367.77762 545.81827,367.36264 545.80277,366.93204 C 545.79271,366.65286 545.81924,366.31335 545.80277,366.03593 C 545.71203,364.50794 545.50475,363.02143 545.2267,361.5554 C 547.4056,361.25728 549.47216,360.90455 551.43544,360.53128 C 549.32401,360.15606 547.11573,359.79886 544.77865,359.50715 C 542.03941,348.71475 534.34053,340.06973 524.42422,336.46441 C 527.09882,335.30238 529.88105,334.45348 532.80922,334.09613 C 532.5775,334.09752 532.33571,334.09047 532.10514,334.09613 z M 522.50399,337.29651 C 530.15539,341.27041 536.33273,349.10123 539.78605,358.99509 C 534.41719,358.49872 528.6348,358.227 522.568,358.227 C 521.28152,358.227 519.98955,358.20316 518.72754,358.227 C 513.58016,358.32421 508.6561,358.59399 504.0698,359.0591 C 507.70963,349.32394 514.32648,341.50278 522.50399,337.29651 z "
         style="fill:#001200;fill-opacity:1.0000000;stroke:#000000;stroke-width:0.9395594;stroke-linecap:round;stroke-miterlimit:4;stroke-dasharray:none;stroke-opacity:0.34666664" />
      <path
         id="path3155"
         d="M 436.59943,346.38309 C 436.71495,349.07973 437.2946,351.55153 438.16873,353.57788 C 439.06187,351.35711 439.59855,348.63219 439.59855,345.69607 C 439.59855,342.5962 439.01494,339.73666 438.02922,337.45166 C 437.13279,339.67491 436.59943,342.39139 436.59943,345.33347 C 436.59943,345.68439 436.58466,346.03884 436.59943,346.38309 z "
         style="fill:#001200;fill-opacity:1.0000000;stroke:#000000;stroke-width:0.41276792;stroke-linecap:round;stroke-miterlimit:4;stroke-dasharray:none;stroke-opacity:0.34666664" />
      <path
         id="path3157"
         d="M 336.79093,375.79325 C 336.90645,378.71192 337.48611,381.38725 338.36023,383.58043 C 339.25337,381.17684 339.79005,378.22751 339.79005,375.04966 C 339.79005,371.69453 339.20645,368.59956 338.22073,366.1264 C 337.32429,368.53272 336.79093,371.47287 336.79093,374.65718 C 336.79093,375.03702 336.77616,375.42066 336.79093,375.79325 z "
         style="fill:#001200;fill-opacity:1.0000000;stroke:#000000;stroke-width:0.42942554;stroke-linecap:round;stroke-miterlimit:4;stroke-dasharray:none;stroke-opacity:0.34666664" />
      <path
         id="path3159"
         d="M 298.31727,346.54392 C 298.43279,348.63016 299.01244,350.54248 299.88657,352.11017 C 300.77971,350.39208 301.31639,348.28392 301.31639,346.0124 C 301.31639,343.61417 300.73278,341.40188 299.74707,339.63409 C 298.85063,341.35412 298.31727,343.45572 298.31727,345.73187 C 298.31727,346.00337 298.3025,346.27759 298.31727,346.54392 z "
         style="fill:#001200;fill-opacity:1.0000000;stroke:#000000;stroke-width:0.3630603;stroke-linecap:round;stroke-miterlimit:4;stroke-dasharray:none;stroke-opacity:0.34666664" />
      <path
         id="path4103"
         d="M 253.0167,332.08254 C 252.91036,332.08326 252.8035,332.14267 252.69667,332.14655 C 252.41954,332.15662 252.13989,332.13008 251.86457,332.14655 C 251.72957,332.15464 251.61505,332.13694 251.48052,332.14655 C 237.98032,333.11108 226.71481,341.82774 222.48507,353.5891 C 221.37355,351.02255 220.55837,348.32526 220.18079,345.52414 C 220.24275,349.0592 220.81311,352.49069 221.78098,355.70135 C 221.78115,355.70678 221.78223,355.76083 221.78098,355.76536 C 221.13366,358.10591 220.76112,360.54551 220.69285,363.06223 C 221.0046,361.13723 221.61047,359.30092 222.35705,357.49357 C 226.98754,370.41942 238.52151,379.7281 252.18461,380.28028 C 252.61193,380.29757 253.03348,380.2803 253.46476,380.28028 C 254.62834,380.2803 255.78831,380.21404 256.92117,380.08826 C 256.98395,380.09084 257.1143,380.08603 257.1772,380.08826 C 258.31004,380.21406 259.47,380.28028 260.63361,380.28028 C 261.06489,380.28032 261.48642,380.29755 261.91376,380.28028 C 275.57682,379.72812 287.11081,370.4194 291.74132,357.49357 C 292.4879,359.30094 293.09377,361.13723 293.40552,363.06223 C 293.33676,360.56903 292.95369,358.14806 292.31739,355.82937 C 292.31612,355.82476 292.31782,355.77044 292.31739,355.76536 C 292.31866,355.75395 292.31708,355.71221 292.31739,355.70135 C 293.28524,352.49071 293.8556,349.05918 293.91758,345.52414 C 293.53998,348.32528 292.7248,351.02253 291.6133,353.5891 C 289.35106,347.28563 285.07785,341.84637 279.51586,338.03525 C 278.743,338.32231 277.96141,338.66367 277.3396,339.05937 C 276.61414,339.52102 275.94104,340.12396 275.41937,340.65956 C 282.3118,344.25034 287.69565,349.40765 290.7812,355.38131 C 284.98594,366.77838 272.28966,375.13878 257.11319,376.69585 C 257.09158,376.69614 257.00675,376.69563 256.98518,376.69585 C 241.80869,375.1388 229.11239,366.77836 223.31717,355.38131 C 228.76025,344.84347 241.42792,337.02786 256.72915,335.41093 C 256.79242,335.4129 256.92197,335.40878 256.98518,335.41093 C 257.00658,335.4112 257.09175,335.41067 257.11319,335.41093 C 257.13462,335.41069 257.21978,335.41118 257.24121,335.41093 C 257.26261,335.41118 257.3478,335.41067 257.36922,335.41093 C 257.46885,335.42146 257.58986,335.39987 257.68926,335.41093 C 257.41387,334.84242 257.08577,334.28624 256.79315,333.81074 C 256.26555,332.95339 255.55112,332.46109 254.80892,332.14655 C 254.78772,332.13755 254.76613,332.15531 254.74491,332.14655 C 254.4983,332.14106 254.22617,332.14655 253.97682,332.14655 C 253.65332,332.14657 253.33576,332.08037 253.0167,332.08254 z "
         style="fill:#001200;fill-opacity:1.0000000;stroke:#000000;stroke-width:0.93600565;stroke-linecap:round;stroke-miterlimit:4;stroke-dasharray:none;stroke-opacity:0.34666664" />
    </g>
    <path
       sodipodi:type="arc"
       style="opacity:1;fill:#0000ab;fill-opacity:1;stroke:none;stroke-width:0.5;stroke-linecap:round;stroke-miterlimit:4;stroke-dasharray:none;stroke-opacity:1"
       id="path5851"
       sodipodi:cx="306.34238"
       sodipodi:cy="102.9621"
       sodipodi:rx="22.208189"
       sodipodi:ry="17.635916"
       d="M 328.55057 102.9621 A 22.208189 17.635916 0 1 1  284.13419,102.9621 A 22.208189 17.635916 0 1 1  328.55057 102.9621 z"
       transform="matrix(0.284223,0,0,0.284223,404.4817,509.4555)" />
    <path
       sodipodi:type="arc"
       style="opacity:1;fill:#0000ab;fill-opacity:1;stroke:none;stroke-width:0.5;stroke-linecap:round;stroke-miterlimit:4;stroke-dasharray:none;stroke-opacity:1"
       id="path5853"
       sodipodi:cx="306.34238"
       sodipodi:cy="102.9621"
       sodipodi:rx="22.208189"
       sodipodi:ry="17.635916"
       d="M 328.55057 102.9621 A 22.208189 17.635916 0 1 1  284.13419,102.9621 A 22.208189 17.635916 0 1 1  328.55057 102.9621 z"
       transform="matrix(0.169031,0,0,0.169031,497.7557,510.7569)" />
    <path
       sodipodi:type="arc"
       style="opacity:1;fill:#0000ab;fill-opacity:1;stroke:none;stroke-width:0.5;stroke-linecap:round;stroke-miterlimit:4;stroke-dasharray:none;stroke-opacity:1"
       id="path5857"
       sodipodi:cx="306.34238"
       sodipodi:cy="102.9621"
       sodipodi:rx="22.208189"
       sodipodi:ry="17.635916"
       d="M 328.55057 102.9621 A 22.208189 17.635916 0 1 1  284.13419,102.9621 A 22.208189 17.635916 0 1 1  328.55057 102.9621 z"
       transform="matrix(0.24156,0,0,0.24156,500.1718,484.4288)" />
    <path
       sodipodi:type="arc"
       style="opacity:1;fill:#0000ab;fill-opacity:1;stroke:none;stroke-width:0.5;stroke-linecap:round;stroke-miterlimit:4;stroke-dasharray:none;stroke-opacity:1"
       id="path5859"
       sodipodi:cx="306.34238"
       sodipodi:cy="102.9621"
       sodipodi:rx="22.208189"
       sodipodi:ry="17.635916"
       d="M 328.55057 102.9621 A 22.208189 17.635916 0 1 1  284.13419,102.9621 A 22.208189 17.635916 0 1 1  328.55057 102.9621 z"
       transform="matrix(9.650253e-2,0,0,9.650253e-2,519.0267,630.6851)" />
    <path
       sodipodi:type="arc"
       style="opacity:1;fill:#0000ab;fill-opacity:1;stroke:none;stroke-width:0.5;stroke-linecap:round;stroke-miterlimit:4;stroke-dasharray:none;stroke-opacity:1"
       id="path5861"
       sodipodi:cx="306.34238"
       sodipodi:cy="102.9621"
       sodipodi:rx="22.208189"
       sodipodi:ry="17.635916"
       d="M 328.55057 102.9621 A 22.208189 17.635916 0 1 1  284.13419,102.9621 A 22.208189 17.635916 0 1 1  328.55057 102.9621 z"
       transform="matrix(0.169031,0,0,0.169031,524.1905,601.4729)" />
    <path
       sodipodi:type="arc"
       style="opacity:1;fill:#0000ab;fill-opacity:1;stroke:none;stroke-width:0.5;stroke-linecap:round;stroke-miterlimit:4;stroke-dasharray:none;stroke-opacity:1"
       id="path5863"
       sodipodi:cx="306.34238"
       sodipodi:cy="102.9621"
       sodipodi:rx="22.208189"
       sodipodi:ry="17.635916"
       d="M 328.55057 102.9621 A 22.208189 17.635916 0 1 1  284.13419,102.9621 A 22.208189 17.635916 0 1 1  328.55057 102.9621 z"
       transform="matrix(0.169031,0,0,0.169031,467.9099,604.8838)" />
    <path
       sodipodi:type="arc"
       style="opacity:1;fill:#0000ab;fill-opacity:1;stroke:none;stroke-width:0.5;stroke-linecap:round;stroke-miterlimit:4;stroke-dasharray:none;stroke-opacity:1"
       id="path5865"
       sodipodi:cx="306.34238"
       sodipodi:cy="102.9621"
       sodipodi:rx="22.208189"
       sodipodi:ry="17.635916"
       d="M 328.55057 102.9621 A 22.208189 17.635916 0 1 1  284.13419,102.9621 A 22.208189 17.635916 0 1 1  328.55057 102.9621 z"
       transform="matrix(0.169031,0,0,0.169031,141.3129,603.1782)" />
    <path
       sodipodi:type="arc"
       style="opacity:1;fill:#0000ab;fill-opacity:1;stroke:none;stroke-width:0.5;stroke-linecap:round;stroke-miterlimit:4;stroke-dasharray:none;stroke-opacity:1"
       id="path5867"
       sodipodi:cx="306.34238"
       sodipodi:cy="102.9621"
       sodipodi:rx="22.208189"
       sodipodi:ry="17.635916"
       d="M 328.55057 102.9621 A 22.208189 17.635916 0 1 1  284.13419,102.9621 A 22.208189 17.635916 0 1 1  328.55057 102.9621 z"
       transform="matrix(0.169031,0,0,0.169031,102.9398,594.651)" />
    <path
       sodipodi:type="arc"
       style="opacity:1;fill:#0000ab;fill-opacity:1;stroke:none;stroke-width:0.5;stroke-linecap:round;stroke-miterlimit:4;stroke-dasharray:none;stroke-opacity:1"
       id="path5869"
       sodipodi:cx="306.34238"
       sodipodi:cy="102.9621"
       sodipodi:rx="22.208189"
       sodipodi:ry="17.635916"
       d="M 328.55057 102.9621 A 22.208189 17.635916 0 1 1  284.13419,102.9621 A 22.208189 17.635916 0 1 1  328.55057 102.9621 z"
       transform="matrix(7.232647e-2,0,0,7.232647e-2,147.5031,629.337)" />
    <path
       sodipodi:type="arc"
       style="opacity:1;fill:#0000ab;fill-opacity:1;stroke:none;stroke-width:0.5;stroke-linecap:round;stroke-miterlimit:4;stroke-dasharray:none;stroke-opacity:1"
       id="path5871"
       sodipodi:cx="306.34238"
       sodipodi:cy="102.9621"
       sodipodi:rx="22.208189"
       sodipodi:ry="17.635916"
       d="M 328.55057 102.9621 A 22.208189 17.635916 0 1 1  284.13419,102.9621 A 22.208189 17.635916 0 1 1  328.55057 102.9621 z"
       transform="matrix(0.193207,0,0,0.193207,142.1182,514.1365)" />
    <path
       sodipodi:type="arc"
       style="opacity:1;fill:#0000ab;fill-opacity:1;stroke:none;stroke-width:0.5;stroke-linecap:round;stroke-miterlimit:4;stroke-dasharray:none;stroke-opacity:1"
       id="path5873"
       sodipodi:cx="306.34238"
       sodipodi:cy="102.9621"
       sodipodi:rx="22.208189"
       sodipodi:ry="17.635916"
       d="M 328.55057 102.9621 A 22.208189 17.635916 0 1 1  284.13419,102.9621 A 22.208189 17.635916 0 1 1  328.55057 102.9621 z"
       transform="matrix(9.650253e-2,0,0,9.650253e-2,151.4984,535.179)" />
    <path
       sodipodi:type="arc"
       style="opacity:1;fill:#0000ab;fill-opacity:1;stroke:none;stroke-width:0.5;stroke-linecap:round;stroke-miterlimit:4;stroke-dasharray:none;stroke-opacity:1"
       id="path5875"
       sodipodi:cx="306.34238"
       sodipodi:cy="102.9621"
       sodipodi:rx="22.208189"
       sodipodi:ry="17.635916"
       d="M 328.55057 102.9621 A 22.208189 17.635916 0 1 1  284.13419,102.9621 A 22.208189 17.635916 0 1 1  328.55057 102.9621 z"
       transform="matrix(0.169031,0,0,0.169031,132.7856,503.4085)" />
    <path
       sodipodi:type="arc"
       style="opacity:1;fill:#0000ab;fill-opacity:1;stroke:none;stroke-width:0.5;stroke-linecap:round;stroke-miterlimit:4;stroke-dasharray:none;stroke-opacity:1"
       id="path5877"
       sodipodi:cx="306.34238"
       sodipodi:cy="102.9621"
       sodipodi:rx="22.208189"
       sodipodi:ry="17.635916"
       d="M 328.55057 102.9621 A 22.208189 17.635916 0 1 1  284.13419,102.9621 A 22.208189 17.635916 0 1 1  328.55057 102.9621 z"
       transform="matrix(0.169031,0,0,0.169031,122.5528,583.5655)" />
    <path
       sodipodi:type="arc"
       style="opacity:1;fill:#0000ab;fill-opacity:1;stroke:none;stroke-width:0.5;stroke-linecap:round;stroke-miterlimit:4;stroke-dasharray:none;stroke-opacity:1"
       id="path5879"
       sodipodi:cx="306.34238"
       sodipodi:cy="102.9621"
       sodipodi:rx="22.208189"
       sodipodi:ry="17.635916"
       d="M 328.55057 102.9621 A 22.208189 17.635916 0 1 1  284.13419,102.9621 A 22.208189 17.635916 0 1 1  328.55057 102.9621 z"
       transform="matrix(0.120679,0,0,0.120679,537.076,524.5889)" />
    <path
       sodipodi:type="arc"
       style="opacity:1;fill:#0000ab;fill-opacity:1;stroke:none;stroke-width:0.5;stroke-linecap:round;stroke-miterlimit:4;stroke-dasharray:none;stroke-opacity:1"
       id="path5881"
       sodipodi:cx="306.34238"
       sodipodi:cy="102.9621"
       sodipodi:rx="22.208189"
       sodipodi:ry="17.635916"
       d="M 328.55057 102.9621 A 22.208189 17.635916 0 1 1  284.13419,102.9621 A 22.208189 17.635916 0 1 1  328.55057 102.9621 z"
       transform="matrix(0.120679,0,0,0.120679,583.1238,560.4037)" />
    <path
       sodipodi:type="arc"
       style="opacity:1;fill:#0000ab;fill-opacity:1;stroke:none;stroke-width:0.5;stroke-linecap:round;stroke-miterlimit:4;stroke-dasharray:none;stroke-opacity:1"
       id="path5883"
       sodipodi:cx="306.34238"
       sodipodi:cy="102.9621"
       sodipodi:rx="22.208189"
       sodipodi:ry="17.635916"
       d="M 328.55057 102.9621 A 22.208189 17.635916 0 1 1  284.13419,102.9621 A 22.208189 17.635916 0 1 1  328.55057 102.9621 z"
       transform="matrix(0.217382,0,0,0.217382,62.32439,552.1522)" />
    <path
       sodipodi:type="arc"
       style="opacity:1;fill:#0000ab;fill-opacity:1;stroke:none;stroke-width:0.5;stroke-linecap:round;stroke-miterlimit:4;stroke-dasharray:none;stroke-opacity:1"
       id="path5885"
       sodipodi:cx="306.34238"
       sodipodi:cy="102.9621"
       sodipodi:rx="22.208189"
       sodipodi:ry="17.635916"
       d="M 328.55057 102.9621 A 22.208189 17.635916 0 1 1  284.13419,102.9621 A 22.208189 17.635916 0 1 1  328.55057 102.9621 z"
       transform="matrix(9.650253e-2,0,0,9.650253e-2,42.18129,522.3881)" />
    <path
       sodipodi:type="arc"
       style="opacity:1;fill:#0000ab;fill-opacity:1;stroke:none;stroke-width:0.5;stroke-linecap:round;stroke-miterlimit:4;stroke-dasharray:none;stroke-opacity:1"
       id="path5887"
       sodipodi:cx="306.34238"
       sodipodi:cy="102.9621"
       sodipodi:rx="22.208189"
       sodipodi:ry="17.635916"
       d="M 328.55057 102.9621 A 22.208189 17.635916 0 1 1  284.13419,102.9621 A 22.208189 17.635916 0 1 1  328.55057 102.9621 z"
       transform="matrix(0.169031,0,0,0.169031,302.4796,621.0858)" />
  </g>
</svg>
