<?xml version="1.0" encoding="UTF-8" standalone="no"?>
<!-- Created with Inkscape (http://www.inkscape.org/) -->
<svg
   xmlns:dc="http://purl.org/dc/elements/1.1/"
   xmlns:cc="http://web.resource.org/cc/"
   xmlns:rdf="http://www.w3.org/1999/02/22-rdf-syntax-ns#"
   xmlns:svg="http://www.w3.org/2000/svg"
   xmlns="http://www.w3.org/2000/svg"
   xmlns:sodipodi="http://sodipodi.sourceforge.net/DTD/sodipodi-0.dtd"
   xmlns:inkscape="http://www.inkscape.org/namespaces/inkscape"
   width="744.09448819"
   height="1052.3622047"
   id="svg2"
   sodipodi:version="0.32"
   inkscape:version="0.44.1"
   sodipodi:docbase="/Users/aurelio/Desktop"
   sodipodi:docname="sentado.svg">
  <defs
     id="defs4" />
  <sodipodi:namedview
     id="base"
     pagecolor="#ffffff"
     bordercolor="#666666"
     borderopacity="1.0"
     gridtolerance="10000"
     guidetolerance="10"
     objecttolerance="10"
     inkscape:pageopacity="0.0"
     inkscape:pageshadow="2"
     inkscape:zoom="1.25"
     inkscape:cx="551.70765"
     inkscape:cy="381.78595"
     inkscape:document-units="px"
     inkscape:current-layer="layer1" />
  <metadata
     id="metadata7">
    <rdf:RDF>
      <cc:Work
         rdf:about="">
        <dc:format>image/svg+xml</dc:format>
        <dc:type
           rdf:resource="http://purl.org/dc/dcmitype/StillImage" />
      </cc:Work>
    </rdf:RDF>
  </metadata>
  <g
     inkscape:label="Layer 1"
     inkscape:groupmode="layer"
     id="layer1">
    <path
       id="path3002"
       d=""
       style="fill:#191919" />
    <path
       id="path3000"
       d="M 483.36501,811.49505 C 481.11282,809.00641 481.28629,806.63235 483.96002,803.35211 C 485.19752,801.8339 486.66002,799.86258 487.21002,798.97142 C 487.89608,797.8598 493.23307,796.30773 504.21002,794.0276 L 520.21002,790.70409 L 519.95667,776.86236 C 519.81732,769.24941 519.30129,762.52634 518.80994,761.92221 C 518.31859,761.31808 517.35462,758.9305 516.6678,756.61647 C 515.67229,753.26245 515.09361,752.57426 513.81452,753.22323 C 512.93205,753.67096 509.28502,754.59191 505.71002,755.26978 C 502.13502,755.94765 498.456,757.17656 497.53442,758.00068 C 495.71886,759.62426 492.59446,759.48078 492.0174,757.74732 C 491.8203,757.15526 492.77402,755.46776 494.13678,753.99732 L 496.61452,751.32379 L 493.41227,751.31014 C 491.65103,751.30263 489.19752,751.02514 487.96002,750.6935 C 486.14544,750.20722 485.71002,750.50014 485.71002,752.20716 C 485.71002,754.22828 485.23621,754.32379 475.21002,754.32379 L 464.71002,754.32379 L 464.71002,737.43078 C 464.71002,723.11786 464.47403,720.44721 463.16487,719.94484 C 460.37407,718.87391 458.94924,713.01858 458.26861,699.82379 C 457.32694,681.56838 455.8578,671.10858 453.09406,662.98286 C 451.26069,657.59254 450.71002,653.84219 450.71002,646.74646 L 450.71002,637.51944 L 453.85924,636.42162 C 455.59132,635.81781 461.66632,635.32379 467.35924,635.32379 L 477.71002,635.32379 L 477.71376,618.07379 C 477.71711,602.60522 477.92341,600.48605 479.71146,597.5534 C 480.80814,595.75468 482.83146,593.76995 484.20772,593.14288 C 486.07364,592.29272 486.7205,591.21704 486.75124,588.91327 C 486.77391,587.21406 487.78641,583.80522 489.00124,581.33808 L 491.21002,576.85238 L 486.58237,572.14704 C 480.14211,565.59867 479.11773,558.51913 483.57608,551.37055 C 489.32979,542.14498 501.3252,531.64396 509.1348,528.99594 C 513.7697,527.42437 514.27003,527.42902 517.6348,529.07493 C 520.4185,530.43661 521.97649,532.37352 524.67211,537.82379 C 527.9536,544.45862 528.13481,545.37154 528.14578,555.32379 C 528.15661,565.13876 527.94791,566.24786 524.94689,572.32379 C 519.61916,583.11045 518.79255,583.82942 511.76532,583.78872 L 505.71002,583.75365 L 505.71002,587.53872 C 505.71002,590.47546 506.10224,591.32463 507.46002,591.32753 C 510.32164,591.33364 515.50078,595.01849 517.16147,598.22991 C 518.45866,600.7384 518.71002,606.09805 518.71002,631.24913 L 518.71002,661.27379 L 521.46002,660.81411 C 530.89423,659.23712 555.70651,657.48306 558.71002,658.18079 C 560.63502,658.62797 564.97958,658.7921 568.36459,658.54553 C 572.95972,658.21081 576.19211,658.65394 581.12175,660.29441 C 584.75317,661.50287 587.47274,662.8987 587.16524,663.39625 C 586.85774,663.8938 587.30799,664.03156 588.1658,663.70238 C 589.85646,663.05362 594.71002,665.75655 594.71002,667.34684 C 594.71002,667.88416 593.65416,668.32379 592.36366,668.32379 C 591.07316,668.32379 588.55023,669.05566 586.75715,669.95017 C 584.06172,671.29482 582.83445,671.37804 579.67207,670.43057 C 576.91045,669.60316 574.54469,669.57647 571.16195,670.33456 C 568.5851,670.91205 565.68869,671.13441 564.72548,670.8287 C 563.76227,670.52298 561.83744,670.70505 560.44809,671.23328 C 559.05873,671.76151 548.53679,672.92436 537.066,673.81739 C 520.53771,675.10416 515.45551,675.84392 512.57386,677.38243 C 507.23245,680.23424 488.66477,680.20329 483.96002,677.33475 L 480.71002,675.35319 L 480.71002,678.2567 C 480.71002,683.7331 481.47334,684.43898 485.04219,682.26286 C 487.68781,680.64969 490.10579,680.33127 499.71002,680.33127 C 512.89701,680.33127 516.4895,681.69649 519.40815,687.81695 L 521.08044,691.32379 L 559.19945,691.32379 L 597.31846,691.32379 L 601.95908,694.26679 C 609.95727,699.33908 609.71002,697.70231 609.71002,745.57796 L 609.71002,787.93146 L 612.96002,791.07567 C 616.89234,794.88 625.6341,798.87113 634.57709,800.94515 C 641.50394,802.5516 642.66954,803.42134 642.69471,807.00236 C 642.7303,812.06592 641.41575,812.32379 615.56716,812.32379 C 588.77674,812.32379 589.19496,812.42831 587.60113,805.33467 C 587.00455,802.67947 587.12914,800.22131 587.99166,797.62965 C 589.14554,794.16255 589.05586,793.52209 586.98415,790.43424 C 584.73532,787.08241 584.71002,786.68466 584.71002,754.68424 L 584.71002,722.32379 L 554.54335,722.32379 C 537.95169,722.32379 524.62918,722.57628 524.93779,722.88489 C 525.24639,723.19349 537.00991,723.77927 551.07895,724.18661 C 575.62058,724.89717 576.75506,725.01747 579.0251,727.15007 C 581.126,729.12376 581.37353,730.18278 581.23349,736.59835 C 581.03273,745.79561 579.6692,748.05741 573.79424,748.93841 C 569.09502,749.6431 546.7754,748.84109 540.5883,747.74522 L 536.96658,747.10374 L 536.24795,753.96376 C 535.76104,758.61178 534.90323,761.50045 533.58767,762.9223 C 531.84746,764.8031 531.67529,766.30166 531.92803,777.36715 L 532.21002,789.71349 L 549.92792,794.12981 C 565.1461,797.92306 567.73757,798.84789 568.2962,800.68496 C 568.65391,801.86132 569.57085,803.53698 570.33385,804.40866 C 571.43235,805.66364 571.48774,806.66298 570.59995,809.20971 C 569.9833,810.9786 569.29322,812.24032 569.06642,812.01352 C 568.83962,811.78673 569.12944,810.35082 569.71046,808.82262 C 570.54219,806.63502 570.4418,805.68489 569.23844,804.3552 C 568.39781,803.42631 567.71002,802.12959 567.71002,801.47361 C 567.71002,799.79444 564.95177,798.79114 550.71002,795.28994 C 528.81986,789.90845 530.71002,790.71221 530.71002,786.78525 C 530.71002,783.34945 530.67667,783.32379 526.21002,783.32379 L 521.71002,783.32379 L 521.71002,787.30474 C 521.71002,790.60888 521.32749,791.37611 519.46002,791.81754 C 518.22252,792.11006 510.68502,793.71569 502.71002,795.3856 C 494.73502,797.05551 488.05448,798.86637 487.86437,799.40974 C 487.67426,799.95311 486.40379,801.72271 485.04109,803.34218 C 483.36832,805.33016 482.77158,806.9424 483.20413,808.30523 C 484.13153,811.22721 485.86554,810.79162 485.12066,807.82379 C 484.61013,805.78967 484.86098,805.32379 486.46675,805.32379 C 487.5522,805.32379 489.549,804.45169 490.90408,803.38578 C 492.25916,802.31987 494.68235,801.15305 496.28894,800.79283 C 497.89553,800.43262 500.09851,799.89235 501.18444,799.59223 C 502.91113,799.11502 502.80953,799.50454 500.37465,802.69684 L 497.59044,806.34712 L 499.71833,809.33545 C 502.74468,813.58557 504.92199,813.45689 502.62434,809.1637 C 500.92323,805.98513 504.60417,802.92832 513.01197,800.53735 C 525.86193,796.88315 525.40687,796.8752 526.69438,800.77639 C 527.32094,802.67491 528.66105,804.49086 529.67239,804.81185 C 530.68373,805.13283 531.7895,806.50433 532.12966,807.85962 C 532.8359,810.67354 533.92519,810.97438 535.69336,808.84386 C 536.69451,807.63755 536.43982,806.79139 534.3158,804.26714 C 532.88262,802.5639 531.71002,800.75487 531.71002,800.24706 C 531.71002,799.73926 534.18502,799.32379 537.21002,799.32379 C 542.25176,799.32379 543.02883,799.6426 546.53641,803.15018 C 548.64093,805.2547 550.66616,807.76712 551.03694,808.73334 C 551.40771,809.69956 552.27334,810.30494 552.96055,810.07862 C 554.83311,809.46193 555.02244,805.82796 553.25828,804.36384 C 552.40674,803.65712 551.71002,802.22543 551.71002,801.18229 C 551.71002,799.63157 552.21154,799.3973 554.46002,799.89768 C 561.34251,801.42934 560.84887,801.16571 566.52252,806.33987 C 569.23881,808.81703 568.95721,810.69133 565.79923,811.15415 C 561.56617,811.77453 558.02936,806.40445 560.82787,803.60594 C 561.65166,802.78215 560.79674,802.25547 557.57787,801.60376 C 552.77451,800.63125 551.63968,801.4836 554.1074,804.21039 C 554.98884,805.18438 555.71002,806.77371 555.71002,807.74224 C 555.71002,809.79743 551.92567,813.24232 549.61501,813.29052 C 546.90534,813.34704 544.38629,809.69375 545.00233,806.60093 C 545.92586,801.96431 543.7508,800.16335 537.65594,800.5181 L 532.4038,800.82379 L 535.05691,803.96815 C 536.51612,805.69754 537.71002,807.36459 537.71002,807.67269 C 537.71002,809.0487 532.43413,813.32379 530.73599,813.32379 C 527.51959,813.32379 525.47169,810.40773 526.14976,806.79333 C 526.48228,805.02082 526.31854,802.42432 525.78589,801.02334 L 524.81743,798.47611 L 519.01373,799.84734 C 510.13939,801.94408 505.17732,803.87653 506.52655,804.7104 C 508.31487,805.81564 507.9453,809.80089 505.88128,811.6688 C 503.48214,813.84 500.42316,813.76928 498.36501,811.49505 C 496.25598,809.1646 496.25801,806.48074 498.37056,804.1464 C 500.60158,801.68115 499.45062,800.81855 495.47712,801.97789 C 492.53731,802.83564 492.24265,803.26011 492.53572,806.21507 C 493.12788,812.18562 487.12021,815.6445 483.36501,811.49505 z M 600.71002,790.51107 L 608.21002,787.82379 L 608.50682,745.82379 C 608.77802,707.44797 608.65298,703.53668 607.05774,700.49652 C 602.91016,692.59217 592.67836,692.27295 587.65636,699.89122 C 585.82321,702.67207 585.72286,704.99055 585.71661,744.70576 C 585.71021,785.39534 585.76928,786.68361 587.79158,789.95576 C 588.93644,791.80817 590.62394,793.29557 591.54158,793.26107 C 592.45922,793.22657 596.58502,791.98907 600.71002,790.51107 z M 529.71002,773.82379 L 529.71002,766.32379 L 525.71002,766.32379 L 521.71002,766.32379 L 521.71002,773.82379 L 521.71002,781.32379 L 525.71002,781.32379 L 529.71002,781.32379 L 529.71002,773.82379 z M 532.96121,762.57379 C 533.82844,761.60166 534.83108,757.88909 535.21687,754.22153 L 535.91137,747.61926 L 527.19896,748.90741 C 514.99777,750.71139 515.50489,750.3433 517.39239,756.02544 C 519.7082,762.99695 521.19801,764.32379 526.71002,764.32379 C 529.91531,764.32379 531.89427,763.76979 532.96121,762.57379 z M 497.6602,756.88382 C 498.31748,756.09184 499.83048,755.30434 501.02242,755.13382 C 503.97682,754.71117 504.59488,751.32379 501.7176,751.32379 C 498.12509,751.32379 492.85113,754.99615 492.74182,757.57379 C 492.68567,758.89799 496.4238,758.37359 497.6602,756.88382 z M 512.96002,752.68175 C 516.47028,751.69339 514.58254,750.32379 509.71002,750.32379 C 505.313,750.32379 504.71002,750.57457 504.71002,752.40325 C 504.71002,754.5118 506.27294,754.56456 512.96002,752.68175 z M 484.71002,750.32379 L 484.71002,747.32379 L 475.7399,747.32379 L 466.76977,747.32379 L 466.45723,734.57379 L 466.14468,721.82379 L 465.92735,737.57379 L 465.71002,753.32379 L 475.21002,753.32379 L 484.71002,753.32379 L 484.71002,750.32379 z M 521.98173,747.5984 C 525.002,746.38992 527.99892,746.20182 536.01605,746.71752 C 559.84138,748.25008 573.27268,748.49321 575.97231,747.44079 C 579.0004,746.26033 581.30942,742.32819 580.38663,739.92344 C 579.86809,738.57215 579.47725,738.56406 577.00517,739.85351 C 575.10664,740.84379 571.48342,741.26057 565.71002,741.15279 L 557.21002,740.9941 L 566.92686,740.4064 C 577.72682,739.75318 579.17152,738.97929 580.20736,733.29238 C 580.72472,730.45197 580.43478,729.38467 578.72554,727.83784 C 576.80349,726.09841 574.2893,725.84654 552.40526,725.2011 C 539.09788,724.80862 526.27848,724.16511 523.91772,723.77107 C 520.37936,723.18049 519.23763,723.40763 517.41772,725.06425 C 513.35457,728.76283 510.99602,729.32384 499.52576,729.32005 C 487.36164,729.31603 483.20519,727.98605 480.69426,723.29434 C 479.6264,721.29902 479.43079,721.26652 477.73364,722.80241 C 475.33538,724.97281 473.43601,732.76529 474.2125,737.24848 C 475.08229,742.27034 478.85625,746.32379 482.66205,746.32379 C 484.63507,746.32379 485.71002,746.82695 485.71002,747.75047 C 485.71002,749.98663 488.19998,750.25341 503.6757,749.67534 C 513.2094,749.31923 519.45072,748.61111 521.98173,747.5984 z M 526.96002,747.66151 C 526.27252,747.3841 525.14752,747.3841 524.46002,747.66151 C 523.77252,747.93892 524.33502,748.1659 525.71002,748.1659 C 527.08502,748.1659 527.64752,747.93892 526.96002,747.66151 z M 477.71002,745.47878 C 477.71002,745.01402 476.8428,743.84894 475.78287,742.88972 C 471.82484,739.30775 472.47128,726.65979 476.81323,722.73039 C 479.44413,720.34945 479.19841,718.8683 476.48751,720.76709 C 475.26513,721.62327 472.79013,722.32379 470.98751,722.32379 L 467.71002,722.32379 L 467.71002,734.32379 L 467.71002,746.32379 L 472.71002,746.32379 C 475.46002,746.32379 477.71002,745.94353 477.71002,745.47878 z M 509.21002,727.32379 C 507.48519,726.5826 507.62277,726.45163 510.21002,726.37184 C 511.86002,726.32095 514.33502,725.39933 515.71002,724.32379 L 518.21002,722.36826 L 506.21002,722.34229 C 492.78302,722.31323 489.17724,721.06176 486.25857,715.41767 C 484.02143,711.09152 484.24048,701.60612 486.66954,697.62234 C 489.92034,692.29083 493.05202,691.32379 507.06674,691.32379 C 518.81068,691.32379 519.49438,691.2152 519.02606,689.42433 C 518.75286,688.37963 517.19045,686.24213 515.55402,684.67433 C 512.59675,681.84108 512.50036,681.82379 499.66708,681.82379 C 487.2174,681.82379 486.66746,681.91323 484.29535,684.32379 C 482.23048,686.42213 481.66451,688.38392 480.77263,696.53438 C 477.8287,723.43729 479.4512,726.40251 497.66344,727.4034 C 503.46406,727.72218 508.88502,728.02806 509.71002,728.08311 C 510.55354,728.13941 510.33472,727.80709 509.21002,727.32379 z M 476.16746,719.97857 C 477.73942,718.82912 478.13796,716.39141 478.90588,703.22857 C 480.76479,671.36515 480.12552,668.43394 467.96761,653.07379 C 465.02909,649.36129 462.85968,646.32379 463.14672,646.32379 C 463.67585,646.32379 474.21398,659.55558 476.40121,662.96628 C 477.3553,664.45406 477.60411,661.98741 477.65121,650.57379 L 477.71002,636.32379 L 467.27512,636.32379 C 461.53592,636.32379 455.68592,636.76265 454.27512,637.29904 C 451.78836,638.2445 451.71002,638.54456 451.71002,647.12389 C 451.71002,653.82193 452.28964,657.67764 454.09406,662.98286 C 456.85113,671.08896 458.31856,681.51007 459.28177,699.82379 C 460.03156,714.07976 460.72406,716.96829 464.01137,719.55155 C 466.65079,721.62569 473.58192,721.86916 476.16746,719.97857 z M 584.71376,712.07379 C 584.71825,700.96784 586.43758,697.26572 592.98068,694.27319 L 597.21002,692.33888 L 544.97865,692.58133 L 492.74728,692.82379 L 489.47865,696.09302 C 486.37612,699.19612 486.21002,699.73831 486.21002,706.76246 C 486.21002,713.27203 486.5109,714.4864 488.71002,716.85258 C 490.08502,718.33204 492.11002,719.91477 493.21002,720.36976 C 494.31002,720.82475 515.34752,721.22554 539.96002,721.2604 L 584.71002,721.32379 L 584.71376,712.07379 z M 510.21002,677.32379 C 511.68607,676.68951 510.76916,676.41819 506.71002,676.28811 C 503.68502,676.19118 500.08502,676.15847 498.71002,676.21544 C 495.40158,676.35251 493.06297,674.41276 491.22063,670.00342 C 489.00183,664.69308 489.00183,610.9545 491.22063,605.64416 C 494.74607,597.20658 501.67397,597.20658 505.19941,605.64416 C 506.41869,608.56231 506.71002,614.40047 506.71002,635.91667 L 506.71002,662.57379 L 509.83502,661.94879 C 511.55377,661.60504 514.04719,661.32379 515.37595,661.32379 L 517.79188,661.32379 L 517.50095,630.34168 L 517.21002,599.35956 L 513.94079,596.09168 L 510.67156,592.82379 L 498.21002,592.82379 L 485.74848,592.82379 L 482.47925,596.09302 L 479.21002,599.36225 L 479.21002,635.26246 L 479.21002,671.16266 L 481.71002,673.85258 C 483.08502,675.33204 485.11002,676.91477 486.21002,677.36976 C 488.84626,678.46018 507.6493,678.42417 510.21002,677.32379 z M 532.21002,673.26107 C 559.9484,671.06181 566.14331,669.71789 567.15682,665.67974 C 568.05222,662.11217 566.53109,660.76479 560.16459,659.48621 C 555.7334,658.5963 550.73079,658.76533 534.92404,660.33904 C 507.74181,663.04529 506.71002,663.2108 506.71002,664.86483 C 506.71002,666.96931 503.61309,674.32379 502.7269,674.32379 C 502.30562,674.32379 502.82366,672.58008 503.8781,670.44888 C 505.66087,666.84558 505.77474,664.4673 505.50264,636.52024 C 505.22254,607.75245 505.11983,606.3458 503.1021,603.64515 C 500.25535,599.8349 496.16477,599.83484 493.31794,603.64501 C 491.30708,606.33633 491.196,607.78671 490.90544,635.14501 C 490.57578,666.18538 490.77628,668.86701 493.7052,672.59053 C 496.22276,675.7911 499.56559,675.84931 532.21002,673.26107 z M 571.52697,669.27926 C 574.55194,668.5816 576.98319,668.62496 579.65059,669.42413 C 582.20922,670.19072 584.03577,670.24087 585.22185,669.57711 C 587.00265,668.58052 585.12638,667.95129 573.88851,665.77631 C 572.06169,665.42275 570.80032,664.90015 571.08548,664.61499 C 571.37064,664.32983 575.72214,664.85334 580.75547,665.77834 C 591.9361,667.83305 593.75548,667.13776 583.29056,664.80954 C 579.12126,663.88196 575.71002,662.90097 575.71002,662.62957 C 575.71002,662.35817 578.07252,662.39823 580.96002,662.71859 L 586.21002,663.30107 L 581.21002,661.38993 C 578.46002,660.33881 574.08217,659.44392 571.48146,659.40129 C 566.83941,659.32521 566.77297,659.36785 567.85031,661.73236 C 568.70157,663.60067 568.6018,664.83435 567.40552,667.23236 C 565.67866,670.69393 565.58811,670.64896 571.52697,669.27926 z M 504.48733,585.65204 C 504.09814,580.95893 503.54001,579.59996 501.25261,577.77605 C 498.63977,575.69264 498.28005,575.65358 494.6908,577.06347 C 491.70679,578.23563 490.55244,579.44788 489.3017,582.7229 C 488.42628,585.01517 487.71002,587.88811 487.71002,589.10722 C 487.71002,591.22463 488.09583,591.32379 496.33385,591.32379 L 504.95768,591.32379 L 504.48733,585.65204 z M 519.26652,580.69049 C 520.06273,579.66381 522.16389,575.89879 523.93577,572.32379 C 526.95655,566.22895 527.15549,565.1693 527.12742,555.32379 C 527.09951,545.53748 526.87399,544.35885 523.80952,537.98339 C 519.59416,529.21357 516.46314,527.52027 509.05773,530.00542 C 501.53292,532.53065 491.06094,541.57051 484.94127,550.82379 C 480.95633,556.84924 481.13739,564.55037 485.39024,569.92003 C 489.56232,575.18772 492.95113,576.99059 496.03738,575.5844 C 497.9864,574.69637 498.91551,574.93386 501.54593,576.99247 C 503.28618,578.35442 504.71002,580.07983 504.71002,580.82672 C 504.71002,583.84419 516.90932,583.73002 519.26652,580.69049 z M 648.88623,810.1 C 647.45338,808.66715 647.32167,806.96574 648.71002,807.82379 C 650.05447,808.65471 649.99255,801.88155 648.61017,796.90259 C 647.5209,792.97933 642.86705,787.32379 640.72793,787.32379 C 640.10316,787.32379 639.8701,787.77379 640.21002,788.32379 C 641.06807,789.71214 639.36666,789.58043 637.93381,788.14758 C 636.65397,786.86774 638.02802,784.32379 639.99913,784.32379 C 640.57345,784.32379 640.76137,784.60578 640.41672,784.95043 C 640.07207,785.29508 641.21024,786.5341 642.94598,787.70382 C 647.41209,790.71353 649.81542,795.39459 650.44194,802.30402 C 650.73963,805.58696 651.37173,808.03287 651.84661,807.73938 C 653.23374,806.88208 652.83917,808.97171 651.38623,810.17755 C 650.41953,810.97984 649.74515,810.95892 648.88623,810.1 z M 600.88623,682.1 C 599.47184,680.68561 599.31387,678.96092 600.6758,679.80264 C 601.26701,680.16803 601.76641,676.21542 601.96342,669.61166 L 602.28526,658.82379 L 602.49764,669.63281 C 602.63323,676.5338 603.07157,680.21837 603.71002,679.82379 C 605.1962,678.90528 604.92131,680.90355 603.38623,682.17755 C 602.41953,682.97984 601.74515,682.95892 600.88623,682.1 z M 611.9224,673.01477 C 611.78681,666.11378 611.34847,662.42921 610.71002,662.82379 C 609.22384,663.7423 609.49873,661.74403 611.03381,660.47003 C 612.00051,659.66774 612.67489,659.68866 613.53381,660.54758 C 614.9482,661.96197 615.10617,663.68666 613.74424,662.84494 C 613.15303,662.47955 612.65363,666.43216 612.45662,673.03592 L 612.13478,683.82379 L 611.9224,673.01477 z "
       style="fill:#010101" />
  </g>
</svg>
